<svg aria-roledescription="er" role="graphics-document document" viewBox="-5.412860870361328 0 189.5844268798828 667" style="max-width: 189.584px; background-color: white;" xmlns:xlink="http://www.w3.org/1999/xlink" xmlns="http://www.w3.org/2000/svg" width="100%" id="my-svg"><style>#my-svg{font-family:"trebuchet ms",verdana,arial,sans-serif;font-size:16px;fill:#000000;}#my-svg .error-icon{fill:#552222;}#my-svg .error-text{fill:#552222;stroke:#552222;}#my-svg .edge-thickness-normal{stroke-width:2px;}#my-svg .edge-thickness-thick{stroke-width:3.5px;}#my-svg .edge-pattern-solid{stroke-dasharray:0;}#my-svg .edge-pattern-dashed{stroke-dasharray:3;}#my-svg .edge-pattern-dotted{stroke-dasharray:2;}#my-svg .marker{fill:#000000;stroke:#000000;}#my-svg .marker.cross{stroke:#000000;}#my-svg svg{font-family:"trebuchet ms",verdana,arial,sans-serif;font-size:16px;}#my-svg .entityBox{fill:#cde498;stroke:#13540c;}#my-svg .attributeBoxOdd{fill:#ffffff;stroke:#13540c;}#my-svg .attributeBoxEven{fill:#f2f2f2;stroke:#13540c;}#my-svg .relationshipLabelBox{fill:hsl(78.1578947368, 58.4615384615%, 84.5098039216%);opacity:0.7;background-color:hsl(78.1578947368, 58.4615384615%, 84.5098039216%);}#my-svg .relationshipLabelBox rect{opacity:0.5;}#my-svg .relationshipLine{stroke:#000000;}#my-svg .entityTitleText{text-anchor:middle;font-size:18px;fill:#000000;}#my-svg #MD_PARENT_START{fill:#f5f5f5!important;stroke:#000000!important;stroke-width:1;}#my-svg #MD_PARENT_END{fill:#f5f5f5!important;stroke:#000000!important;stroke-width:1;}#my-svg :root{--mermaid-font-family:"trebuchet ms",verdana,arial,sans-serif;}</style><g/><defs><marker orient="auto" markerHeight="240" markerWidth="190" refY="7" refX="0" id="MD_PARENT_START"><path d="M 18,7 L9,13 L1,7 L9,1 Z"/></marker></defs><defs><marker orient="auto" markerHeight="28" markerWidth="20" refY="7" refX="19" id="MD_PARENT_END"><path d="M 18,7 L9,13 L1,7 L9,1 Z"/></marker></defs><defs><marker orient="auto" markerHeight="18" markerWidth="18" refY="9" refX="0" id="ONLY_ONE_START"><path d="M9,0 L9,18 M15,0 L15,18" fill="none" stroke="gray"/></marker></defs><defs><marker orient="auto" markerHeight="18" markerWidth="18" refY="9" refX="18" id="ONLY_ONE_END"><path d="M3,0 L3,18 M9,0 L9,18" fill="none" stroke="gray"/></marker></defs><defs><marker orient="auto" markerHeight="18" markerWidth="30" refY="9" refX="0" id="ZERO_OR_ONE_START"><circle r="6" cy="9" cx="21" fill="white" stroke="gray"/><path d="M9,0 L9,18" fill="none" stroke="gray"/></marker></defs><defs><marker orient="auto" markerHeight="18" markerWidth="30" refY="9" refX="30" id="ZERO_OR_ONE_END"><circle r="6" cy="9" cx="9" fill="white" stroke="gray"/><path d="M21,0 L21,18" fill="none" stroke="gray"/></marker></defs><defs><marker orient="auto" markerHeight="36" markerWidth="45" refY="18" refX="18" id="ONE_OR_MORE_START"><path d="M0,18 Q 18,0 36,18 Q 18,36 0,18 M42,9 L42,27" fill="none" stroke="gray"/></marker></defs><defs><marker orient="auto" markerHeight="36" markerWidth="45" refY="18" refX="27" id="ONE_OR_MORE_END"><path d="M3,9 L3,27 M9,18 Q27,0 45,18 Q27,36 9,18" fill="none" stroke="gray"/></marker></defs><defs><marker orient="auto" markerHeight="36" markerWidth="57" refY="18" refX="18" id="ZERO_OR_MORE_START"><circle r="6" cy="18" cx="48" fill="white" stroke="gray"/><path d="M0,18 Q18,0 36,18 Q18,36 0,18" fill="none" stroke="gray"/></marker></defs><defs><marker orient="auto" markerHeight="36" markerWidth="57" refY="18" refX="39" id="ZERO_OR_MORE_END"><circle r="6" cy="18" cx="9" fill="white" stroke="gray"/><path d="M21,18 Q39,0 57,18 Q39,36 21,18" fill="none" stroke="gray"/></marker></defs><path style="stroke: gray; fill: none;" marker-start="url(#ZERO_OR_MORE_START)" marker-end="url(#ZERO_OR_MORE_END)" d="M54.721176687963,287L52.45051365435719,295.3333333333333C50.17985062075138,303.6666666666667,45.63852455353975,320.3333333333333,47.28022458722658,337C48.921924620913416,353.6666666666667,56.746650755498706,370.3333333333333,60.65901382279136,378.6666666666667L64.571376890084,387" class="er relationshipLine"/><path style="stroke: gray; fill: none;" marker-start="url(#ZERO_OR_ONE_START)" marker-end="url(#ONLY_ONE_END)" d="M117.62302008257225,387L121.5353831498649,378.6666666666667C125.44774621715754,370.3333333333333,133.27247235174283,353.6666666666667,134.91417238542965,337C136.5558724191165,320.3333333333333,132.01454635190487,303.6666666666667,129.74388331829905,295.3333333333333L127.47322028469324,287" class="er relationshipLine"/><path style="stroke: gray; fill: none;" marker-start="url(#ZERO_OR_ONE_START)" marker-end="url(#ONLY_ONE_END)" d="M64.571376890084,500L60.65901382279136,508.3333333333333C56.746650755498706,516.6666666666666,48.921924620913416,533.3333333333334,50.678495793983586,550C52.43506696705375,566.6666666666666,63.77293544777937,583.3333333333334,69.44186968814218,591.6666666666666L75.11080392850499,600" class="er relationshipLine"/><path style="stroke: gray; fill: none;" marker-start="url(#ZERO_OR_MORE_START)" marker-end="url(#ZERO_OR_MORE_END)" d="M107.08359304415126,600L112.75252728451407,591.6666666666666C118.42146152487688,583.3333333333334,129.7593300056025,566.6666666666666,131.51590117867266,550C133.27247235174283,533.3333333333334,125.44774621715754,516.6666666666666,121.5353831498649,508.3333333333333L117.62302008257225,500" class="er relationshipLine"/><g transform="translate(20,20 )" id="entity-trips-19ff57ce-4c80-56ac-b63b-1960dd35a33d"><rect height="267" width="142.19439697265625" y="0" x="0" class="er entityBox"/><text style="dominant-baseline: middle; text-anchor: middle; font-size: 12px;" transform="translate(71.09719848632812,12)" y="0" x="0" id="text-entity-trips-19ff57ce-4c80-56ac-b63b-1960dd35a33d" class="er entityLabel">trips</text><rect height="23" width="54.095550537109375" y="24" x="0" class="er attributeBoxOdd"/><text style="dominant-baseline: middle; font-size: 10.2px;" transform="translate(5,35.5)" y="0" x="0" id="text-entity-trips-19ff57ce-4c80-56ac-b63b-1960dd35a33d-attr-1-type" class="er entityLabel">String</text><rect height="23" width="65.52072143554688" y="24" x="54.095550537109375" class="er attributeBoxOdd"/><text style="dominant-baseline: middle; font-size: 10.2px;" transform="translate(59.095550537109375,35.5)" y="0" x="0" id="text-entity-trips-19ff57ce-4c80-56ac-b63b-1960dd35a33d-attr-1-name" class="er entityLabel">id</text><rect height="23" width="22.578125" y="24" x="119.61627197265625" class="er attributeBoxOdd"/><text style="dominant-baseline: middle; font-size: 10.2px;" transform="translate(124.61627197265625,35.5)" y="0" x="0" id="text-entity-trips-19ff57ce-4c80-56ac-b63b-1960dd35a33d-attr-1-comment" class="er entityLabel">🗝️</text><rect height="22" width="54.095550537109375" y="47" x="0" class="er attributeBoxEven"/><text style="dominant-baseline: middle; font-size: 10.2px;" transform="translate(5,58)" y="0" x="0" id="text-entity-trips-19ff57ce-4c80-56ac-b63b-1960dd35a33d-attr-2-type" class="er entityLabel">String</text><rect height="22" width="65.52072143554688" y="47" x="54.095550537109375" class="er attributeBoxEven"/><text style="dominant-baseline: middle; font-size: 10.2px;" transform="translate(59.095550537109375,58)" y="0" x="0" id="text-entity-trips-19ff57ce-4c80-56ac-b63b-1960dd35a33d-attr-2-name" class="er entityLabel">name</text><rect height="22" width="22.578125" y="47" x="119.61627197265625" class="er attributeBoxEven"/><text style="dominant-baseline: middle; font-size: 10.2px;" transform="translate(124.61627197265625,58)" y="0" x="0" id="text-entity-trips-19ff57ce-4c80-56ac-b63b-1960dd35a33d-attr-2-comment" class="er entityLabel"/><rect height="22" width="54.095550537109375" y="69" x="0" class="er attributeBoxOdd"/><text style="dominant-baseline: middle; font-size: 10.2px;" transform="translate(5,80)" y="0" x="0" id="text-entity-trips-19ff57ce-4c80-56ac-b63b-1960dd35a33d-attr-3-type" class="er entityLabel">String</text><rect height="22" width="65.52072143554688" y="69" x="54.095550537109375" class="er attributeBoxOdd"/><text style="dominant-baseline: middle; font-size: 10.2px;" transform="translate(59.095550537109375,80)" y="0" x="0" id="text-entity-trips-19ff57ce-4c80-56ac-b63b-1960dd35a33d-attr-3-name" class="er entityLabel">location</text><rect height="22" width="22.578125" y="69" x="119.61627197265625" class="er attributeBoxOdd"/><text style="dominant-baseline: middle; font-size: 10.2px;" transform="translate(124.61627197265625,80)" y="0" x="0" id="text-entity-trips-19ff57ce-4c80-56ac-b63b-1960dd35a33d-attr-3-comment" class="er entityLabel"/><rect height="22" width="54.095550537109375" y="91" x="0" class="er attributeBoxEven"/><text style="dominant-baseline: middle; font-size: 10.2px;" transform="translate(5,102)" y="0" x="0" id="text-entity-trips-19ff57ce-4c80-56ac-b63b-1960dd35a33d-attr-4-type" class="er entityLabel">DateTime</text><rect height="22" width="65.52072143554688" y="91" x="54.095550537109375" class="er attributeBoxEven"/><text style="dominant-baseline: middle; font-size: 10.2px;" transform="translate(59.095550537109375,102)" y="0" x="0" id="text-entity-trips-19ff57ce-4c80-56ac-b63b-1960dd35a33d-attr-4-name" class="er entityLabel">startDate</text><rect height="22" width="22.578125" y="91" x="119.61627197265625" class="er attributeBoxEven"/><text style="dominant-baseline: middle; font-size: 10.2px;" transform="translate(124.61627197265625,102)" y="0" x="0" id="text-entity-trips-19ff57ce-4c80-56ac-b63b-1960dd35a33d-attr-4-comment" class="er entityLabel"/><rect height="22" width="54.095550537109375" y="113" x="0" class="er attributeBoxOdd"/><text style="dominant-baseline: middle; font-size: 10.2px;" transform="translate(5,124)" y="0" x="0" id="text-entity-trips-19ff57ce-4c80-56ac-b63b-1960dd35a33d-attr-5-type" class="er entityLabel">DateTime</text><rect height="22" width="65.52072143554688" y="113" x="54.095550537109375" class="er attributeBoxOdd"/><text style="dominant-baseline: middle; font-size: 10.2px;" transform="translate(59.095550537109375,124)" y="0" x="0" id="text-entity-trips-19ff57ce-4c80-56ac-b63b-1960dd35a33d-attr-5-name" class="er entityLabel">endDate</text><rect height="22" width="22.578125" y="113" x="119.61627197265625" class="er attributeBoxOdd"/><text style="dominant-baseline: middle; font-size: 10.2px;" transform="translate(124.61627197265625,124)" y="0" x="0" id="text-entity-trips-19ff57ce-4c80-56ac-b63b-1960dd35a33d-attr-5-comment" class="er entityLabel"/><rect height="22" width="54.095550537109375" y="135" x="0" class="er attributeBoxEven"/><text style="dominant-baseline: middle; font-size: 10.2px;" transform="translate(5,146)" y="0" x="0" id="text-entity-trips-19ff57ce-4c80-56ac-b63b-1960dd35a33d-attr-6-type" class="er entityLabel">Decimal</text><rect height="22" width="65.52072143554688" y="135" x="54.095550537109375" class="er attributeBoxEven"/><text style="dominant-baseline: middle; font-size: 10.2px;" transform="translate(59.095550537109375,146)" y="0" x="0" id="text-entity-trips-19ff57ce-4c80-56ac-b63b-1960dd35a33d-attr-6-name" class="er entityLabel">pricePerDay</text><rect height="22" width="22.578125" y="135" x="119.61627197265625" class="er attributeBoxEven"/><text style="dominant-baseline: middle; font-size: 10.2px;" transform="translate(124.61627197265625,146)" y="0" x="0" id="text-entity-trips-19ff57ce-4c80-56ac-b63b-1960dd35a33d-attr-6-comment" class="er entityLabel"/><rect height="22" width="54.095550537109375" y="157" x="0" class="er attributeBoxOdd"/><text style="dominant-baseline: middle; font-size: 10.2px;" transform="translate(5,168)" y="0" x="0" id="text-entity-trips-19ff57ce-4c80-56ac-b63b-1960dd35a33d-attr-7-type" class="er entityLabel">String</text><rect height="22" width="65.52072143554688" y="157" x="54.095550537109375" class="er attributeBoxOdd"/><text style="dominant-baseline: middle; font-size: 10.2px;" transform="translate(59.095550537109375,168)" y="0" x="0" id="text-entity-trips-19ff57ce-4c80-56ac-b63b-1960dd35a33d-attr-7-name" class="er entityLabel">description</text><rect height="22" width="22.578125" y="157" x="119.61627197265625" class="er attributeBoxOdd"/><text style="dominant-baseline: middle; font-size: 10.2px;" transform="translate(124.61627197265625,168)" y="0" x="0" id="text-entity-trips-19ff57ce-4c80-56ac-b63b-1960dd35a33d-attr-7-comment" class="er entityLabel"/><rect height="22" width="54.095550537109375" y="179" x="0" class="er attributeBoxEven"/><text style="dominant-baseline: middle; font-size: 10.2px;" transform="translate(5,190)" y="0" x="0" id="text-entity-trips-19ff57ce-4c80-56ac-b63b-1960dd35a33d-attr-8-type" class="er entityLabel">String</text><rect height="22" width="65.52072143554688" y="179" x="54.095550537109375" class="er attributeBoxEven"/><text style="dominant-baseline: middle; font-size: 10.2px;" transform="translate(59.095550537109375,190)" y="0" x="0" id="text-entity-trips-19ff57ce-4c80-56ac-b63b-1960dd35a33d-attr-8-name" class="er entityLabel">coverImage</text><rect height="22" width="22.578125" y="179" x="119.61627197265625" class="er attributeBoxEven"/><text style="dominant-baseline: middle; font-size: 10.2px;" transform="translate(124.61627197265625,190)" y="0" x="0" id="text-entity-trips-19ff57ce-4c80-56ac-b63b-1960dd35a33d-attr-8-comment" class="er entityLabel"/><rect height="22" width="54.095550537109375" y="201" x="0" class="er attributeBoxOdd"/><text style="dominant-baseline: middle; font-size: 10.2px;" transform="translate(5,212)" y="0" x="0" id="text-entity-trips-19ff57ce-4c80-56ac-b63b-1960dd35a33d-attr-9-type" class="er entityLabel">String</text><rect height="22" width="65.52072143554688" y="201" x="54.095550537109375" class="er attributeBoxOdd"/><text style="dominant-baseline: middle; font-size: 10.2px;" transform="translate(59.095550537109375,212)" y="0" x="0" id="text-entity-trips-19ff57ce-4c80-56ac-b63b-1960dd35a33d-attr-9-name" class="er entityLabel">imagesUrl</text><rect height="22" width="22.578125" y="201" x="119.61627197265625" class="er attributeBoxOdd"/><text style="dominant-baseline: middle; font-size: 10.2px;" transform="translate(124.61627197265625,212)" y="0" x="0" id="text-entity-trips-19ff57ce-4c80-56ac-b63b-1960dd35a33d-attr-9-comment" class="er entityLabel"/><rect height="22" width="54.095550537109375" y="223" x="0" class="er attributeBoxEven"/><text style="dominant-baseline: middle; font-size: 10.2px;" transform="translate(5,234)" y="0" x="0" id="text-entity-trips-19ff57ce-4c80-56ac-b63b-1960dd35a33d-attr-10-type" class="er entityLabel">String</text><rect height="22" width="65.52072143554688" y="223" x="54.095550537109375" class="er attributeBoxEven"/><text style="dominant-baseline: middle; font-size: 10.2px;" transform="translate(59.095550537109375,234)" y="0" x="0" id="text-entity-trips-19ff57ce-4c80-56ac-b63b-1960dd35a33d-attr-10-name" class="er entityLabel">highlights</text><rect height="22" width="22.578125" y="223" x="119.61627197265625" class="er attributeBoxEven"/><text style="dominant-baseline: middle; font-size: 10.2px;" transform="translate(124.61627197265625,234)" y="0" x="0" id="text-entity-trips-19ff57ce-4c80-56ac-b63b-1960dd35a33d-attr-10-comment" class="er entityLabel"/><rect height="22" width="54.095550537109375" y="245" x="0" class="er attributeBoxOdd"/><text style="dominant-baseline: middle; font-size: 10.2px;" transform="translate(5,256)" y="0" x="0" id="text-entity-trips-19ff57ce-4c80-56ac-b63b-1960dd35a33d-attr-11-type" class="er entityLabel">Int</text><rect height="22" width="65.52072143554688" y="245" x="54.095550537109375" class="er attributeBoxOdd"/><text style="dominant-baseline: middle; font-size: 10.2px;" transform="translate(59.095550537109375,256)" y="0" x="0" id="text-entity-trips-19ff57ce-4c80-56ac-b63b-1960dd35a33d-attr-11-name" class="er entityLabel">maxGuests</text><rect height="22" width="22.578125" y="245" x="119.61627197265625" class="er attributeBoxOdd"/><text style="dominant-baseline: middle; font-size: 10.2px;" transform="translate(124.61627197265625,256)" y="0" x="0" id="text-entity-trips-19ff57ce-4c80-56ac-b63b-1960dd35a33d-attr-11-comment" class="er entityLabel"/></g><g transform="translate(26.16083526611328,387 )" id="entity-TripReservation-ac3282f8-f733-54fe-b1bd-a02a4a71a6fc"><rect height="113" width="129.8727264404297" y="0" x="0" class="er entityBox"/><text style="dominant-baseline: middle; text-anchor: middle; font-size: 12px;" transform="translate(64.93636322021484,12)" y="0" x="0" id="text-entity-TripReservation-ac3282f8-f733-54fe-b1bd-a02a4a71a6fc" class="er entityLabel">TripReservation</text><rect height="23" width="54.095550537109375" y="24" x="0" class="er attributeBoxOdd"/><text style="dominant-baseline: middle; font-size: 10.2px;" transform="translate(5,35.5)" y="0" x="0" id="text-entity-TripReservation-ac3282f8-f733-54fe-b1bd-a02a4a71a6fc-attr-1-type" class="er entityLabel">String</text><rect height="23" width="53.19905090332031" y="24" x="54.095550537109375" class="er attributeBoxOdd"/><text style="dominant-baseline: middle; font-size: 10.2px;" transform="translate(59.095550537109375,35.5)" y="0" x="0" id="text-entity-TripReservation-ac3282f8-f733-54fe-b1bd-a02a4a71a6fc-attr-1-name" class="er entityLabel">id</text><rect height="23" width="22.578125" y="24" x="107.29460144042969" class="er attributeBoxOdd"/><text style="dominant-baseline: middle; font-size: 10.2px;" transform="translate(112.29460144042969,35.5)" y="0" x="0" id="text-entity-TripReservation-ac3282f8-f733-54fe-b1bd-a02a4a71a6fc-attr-1-comment" class="er entityLabel">🗝️</text><rect height="22" width="54.095550537109375" y="47" x="0" class="er attributeBoxEven"/><text style="dominant-baseline: middle; font-size: 10.2px;" transform="translate(5,58)" y="0" x="0" id="text-entity-TripReservation-ac3282f8-f733-54fe-b1bd-a02a4a71a6fc-attr-2-type" class="er entityLabel">DateTime</text><rect height="22" width="53.19905090332031" y="47" x="54.095550537109375" class="er attributeBoxEven"/><text style="dominant-baseline: middle; font-size: 10.2px;" transform="translate(59.095550537109375,58)" y="0" x="0" id="text-entity-TripReservation-ac3282f8-f733-54fe-b1bd-a02a4a71a6fc-attr-2-name" class="er entityLabel">startDate</text><rect height="22" width="22.578125" y="47" x="107.29460144042969" class="er attributeBoxEven"/><text style="dominant-baseline: middle; font-size: 10.2px;" transform="translate(112.29460144042969,58)" y="0" x="0" id="text-entity-TripReservation-ac3282f8-f733-54fe-b1bd-a02a4a71a6fc-attr-2-comment" class="er entityLabel"/><rect height="22" width="54.095550537109375" y="69" x="0" class="er attributeBoxOdd"/><text style="dominant-baseline: middle; font-size: 10.2px;" transform="translate(5,80)" y="0" x="0" id="text-entity-TripReservation-ac3282f8-f733-54fe-b1bd-a02a4a71a6fc-attr-3-type" class="er entityLabel">DateTime</text><rect height="22" width="53.19905090332031" y="69" x="54.095550537109375" class="er attributeBoxOdd"/><text style="dominant-baseline: middle; font-size: 10.2px;" transform="translate(59.095550537109375,80)" y="0" x="0" id="text-entity-TripReservation-ac3282f8-f733-54fe-b1bd-a02a4a71a6fc-attr-3-name" class="er entityLabel">endDate</text><rect height="22" width="22.578125" y="69" x="107.29460144042969" class="er attributeBoxOdd"/><text style="dominant-baseline: middle; font-size: 10.2px;" transform="translate(112.29460144042969,80)" y="0" x="0" id="text-entity-TripReservation-ac3282f8-f733-54fe-b1bd-a02a4a71a6fc-attr-3-comment" class="er entityLabel"/><rect height="22" width="54.095550537109375" y="91" x="0" class="er attributeBoxEven"/><text style="dominant-baseline: middle; font-size: 10.2px;" transform="translate(5,102)" y="0" x="0" id="text-entity-TripReservation-ac3282f8-f733-54fe-b1bd-a02a4a71a6fc-attr-4-type" class="er entityLabel">Decimal</text><rect height="22" width="53.19905090332031" y="91" x="54.095550537109375" class="er attributeBoxEven"/><text style="dominant-baseline: middle; font-size: 10.2px;" transform="translate(59.095550537109375,102)" y="0" x="0" id="text-entity-TripReservation-ac3282f8-f733-54fe-b1bd-a02a4a71a6fc-attr-4-name" class="er entityLabel">totalPaid</text><rect height="22" width="22.578125" y="91" x="107.29460144042969" class="er attributeBoxEven"/><text style="dominant-baseline: middle; font-size: 10.2px;" transform="translate(112.29460144042969,102)" y="0" x="0" id="text-entity-TripReservation-ac3282f8-f733-54fe-b1bd-a02a4a71a6fc-attr-4-comment" class="er entityLabel"/></g><g transform="translate(41.097198486328125,600 )" id="entity-users-33ae1e26-be31-5c1d-bf65-e859e9d0308e"><rect height="47" width="100" y="0" x="0" class="er entityBox"/><text style="dominant-baseline: middle; text-anchor: middle; font-size: 12px;" transform="translate(50,12)" y="0" x="0" id="text-entity-users-33ae1e26-be31-5c1d-bf65-e859e9d0308e" class="er entityLabel">users</text><rect height="23" width="44.43513488769531" y="24" x="0" class="er attributeBoxOdd"/><text style="dominant-baseline: middle; font-size: 10.2px;" transform="translate(5,35.5)" y="0" x="0" id="text-entity-users-33ae1e26-be31-5c1d-bf65-e859e9d0308e-attr-1-type" class="er entityLabel">String</text><rect height="23" width="25.947662353515625" y="24" x="44.43513488769531" class="er attributeBoxOdd"/><text style="dominant-baseline: middle; font-size: 10.2px;" transform="translate(49.43513488769531,35.5)" y="0" x="0" id="text-entity-users-33ae1e26-be31-5c1d-bf65-e859e9d0308e-attr-1-name" class="er entityLabel">id</text><rect height="23" width="29.617202758789062" y="24" x="70.38279724121094" class="er attributeBoxOdd"/><text style="dominant-baseline: middle; font-size: 10.2px;" transform="translate(75.38279724121094,35.5)" y="0" x="0" id="text-entity-users-33ae1e26-be31-5c1d-bf65-e859e9d0308e-attr-1-comment" class="er entityLabel">🗝️</text></g><rect height="14" width="65.6328125" y="331.1524963378906" x="14.587139129638672" class="er relationshipLabelBox"/><text style="text-anchor: middle; dominant-baseline: middle; font-size: 12px;" y="338.1524963378906" x="47.40354537963867" id="rel1" class="er relationshipLabel">reservations</text><rect height="14" width="19.84375" y="331.1524963378906" x="124.86895751953125" class="er relationshipLabelBox"/><text style="text-anchor: middle; dominant-baseline: middle; font-size: 12px;" y="338.1524963378906" x="134.79083251953125" id="rel2" class="er relationshipLabel">trip</text><rect height="14" width="23.958984375" y="544.8030395507812" x="38.926151275634766" class="er relationshipLabelBox"/><text style="text-anchor: middle; dominant-baseline: middle; font-size: 12px;" y="551.8030395507812" x="50.905643463134766" id="rel3" class="er relationshipLabel">user</text><rect height="14" width="65.6328125" y="544.8030395507812" x="98.47235107421875" class="er relationshipLabelBox"/><text style="text-anchor: middle; dominant-baseline: middle; font-size: 12px;" y="551.8030395507812" x="131.28875732421875" id="rel4" class="er relationshipLabel">reservations</text></svg>